/* XPM */
static char *delete[] = {
/* columns rows colors chars-per-pixel */
"16 15 16 1 ",
"  c #3C6AB4",
". c #4C72B4",
"X c #5C7EB4",
"o c #758FB9",
"O c #7C92B9",
"+ c #7F96B9",
"@ c #8497B9",
"# c #8A9BB9",
"$ c #8FA0B9",
"% c #97A6BE",
"& c #9DA9BE",
"* c #A5ADBD",
"= c #ADB2BD",
"- c #B2B6BD",
"; c #B8BCBD",
": c #C0C0C0",
/* pixels */
"::::::::::::::::",
"::::;%-::::::**:",
"::::$ O;::::#o@:",
"::::&o %::;+o+-:",
":::::+ +:;+ +;::",
":::::% o%+ +;:::",
":::::;O  o#;::::",
"::::::$  #::::::",
":::::$o  $::::::",
":::;@o.X o;:::::",
"::-+ +-*  *:::::",
":*Oo+;:;o +:::::",
"&oo#::::# o=::::",
"$O&:::::=O@;::::",
"::::::::::::::::"
};
