/* XPM */
static char *fileopen[] = {
/* columns rows colors chars-per-pixel */
"16 15 16 1 ",
"  c #215579",
". c #9AEA53",
"X c #376485",
"o c #4F7694",
"O c #6D88A3",
"+ c #8196A4",
"@ c #8399AD",
"# c #8DA0B9",
"$ c #B9DA8D",
"% c #98A9C0",
"& c #A8B6CA",
"* c #B8C3D4",
"= c #C0C0C0",
"- c #DEEFD0",
"; c #C9D2DF",
": c #EAEDF2",
/* pixels */
"================",
"=====++++=======",
"+++++=X--+======",
" ####o;X$-+=====",
" ####@OOX$-+++==",
" #######X$- *+==",
" #    XXX.-  ++@",
" # **;X.....- :o",
" @ &**;X...- :*@",
"  @%&***X.- ::@=",
"  #%%&***X :::@=",
" o@#%%&***;;:*@=",
" O+@#%%&**;;;@==",
"+++++++++++++@==",
"================"
};
