/* XPM */
static char *find[] = {
/* columns rows colors chars-per-pixel */
"16 15 16 1 ",
"  c #7099B4",
". c #4CB8E1",
"X c #B19189",
"o c #8AA5B8",
"O c #98ADBE",
"+ c #D59F83",
"@ c #DBBEA6",
"# c #A1B6C2",
"$ c #ACBCC9",
"% c #97C8DA",
"& c #91D3EE",
"* c #B7DFF1",
"= c #C0C0C0",
"- c #C3D1DD",
"; c #E0DAD2",
": c #E3F4FC",
/* pixels */
"=======%o  o$===",
"======#$----#O==",
"=====%#-...%-$$=",
"=====o-..&&%%-O=",
"=====o-.%:::%-O=",
"=====o-.&:::*-O=",
"=====O-.&:::*%#=",
"=====$$%&****$$=",
"======o$%--%##==",
"====XX-o#OoOO===",
"===X;@X=========",
"==X;@+X=========",
"=X;@+X==========",
"=X@+X===========",
"==XX============"
};
