/* XPM */
static char *forward[] = {
/* columns rows colors chars-per-pixel */
"16 15 2 1 ",
"  c #236289",
". c #C0C0C0",
/* pixels */
"................",
"................",
"................",
"................",
".......... .....",
"..........  ....",
"...          ...",
"...           ..",
"...           ..",
"...          ...",
"..........  ....",
".......... .....",
"................",
"................",
"................"
};
