/* XPM */
static char *goparent3[] = {
/* columns rows colors chars-per-pixel */
"16 15 256 2 ",
"   c #8497A5",
".  c #969BA0",
"X  c #969BA1",
"o  c #9CA0A4",
"O  c #9DA1A5",
"+  c #9EA1A6",
"@  c #A5AAAD",
"#  c #A7AAAE",
"$  c #A7ACAF",
"%  c #ADB1B4",
"&  c #B0B2B7",
"*  c #B2B4B8",
"=  c #B8B9BD",
"-  c #B8BABE",
";  c #B9BBBF",
":  c #BABCC0",
">  c #BCBEC2",
",  c #BEC0C3",
"<  c #BFC2C4",
"1  c #C0C0C0",
"2  c #C0C3C5",
"3  c #C2C3C7",
"4  c #C3C4C8",
"5  c #C5C6C9",
"6  c #C5C8CA",
"7  c #C6C9CB",
"8  c #C8CACC",
"9  c #C9CACE",
"0  c #CACBCF",
"q  c #CCCDCF",
"w  c #CCCDD1",
"e  c #CDCED1",
"r  c #CFCFD2",
"t  c #CDD0D1",
"y  c #D0D1D3",
"u  c #D0D2D4",
"i  c #D2D3D5",
"p  c #D3D4D6",
"a  c #D4D5D7",
"s  c #D5D5D9",
"d  c #D6D7D9",
"f  c #D7D8DB",
"g  c #D8D8DA",
"h  c #D8D9DB",
"j  c #D9DADC",
"k  c #DADCDD",
"l  c #DBDCDE",
"z  c #DDDEDF",
"x  c #DEDEE0",
"c  c #DEE0E0",
"v  c #E0E0E1",
"b  c #E7E7E9",
"n  c #E8E9E9",
"m  c #EBEBEC",
"M  c black",
"N  c black",
"B  c black",
"V  c black",
"C  c black",
"Z  c black",
"A  c black",
"S  c black",
"D  c black",
"F  c black",
"G  c black",
"H  c black",
"J  c black",
"K  c black",
"L  c black",
"P  c black",
"I  c black",
"U  c black",
"Y  c black",
"T  c black",
"R  c black",
"E  c black",
"W  c black",
"Q  c black",
"!  c black",
"~  c black",
"^  c black",
"/  c black",
"(  c black",
")  c black",
"_  c black",
"`  c black",
"'  c black",
"]  c black",
"[  c black",
"{  c black",
"}  c black",
"|  c black",
" . c black",
".. c black",
"X. c black",
"o. c black",
"O. c black",
"+. c black",
"@. c black",
"#. c black",
"$. c black",
"%. c black",
"&. c black",
"*. c black",
"=. c black",
"-. c black",
";. c black",
":. c black",
">. c black",
",. c black",
"<. c black",
"1. c black",
"2. c black",
"3. c black",
"4. c black",
"5. c black",
"6. c black",
"7. c black",
"8. c black",
"9. c black",
"0. c black",
"q. c black",
"w. c black",
"e. c black",
"r. c black",
"t. c black",
"y. c black",
"u. c black",
"i. c black",
"p. c black",
"a. c black",
"s. c black",
"d. c black",
"f. c black",
"g. c black",
"h. c black",
"j. c black",
"k. c black",
"l. c black",
"z. c black",
"x. c black",
"c. c black",
"v. c black",
"b. c black",
"n. c black",
"m. c black",
"M. c black",
"N. c black",
"B. c black",
"V. c black",
"C. c black",
"Z. c black",
"A. c black",
"S. c black",
"D. c black",
"F. c black",
"G. c black",
"H. c black",
"J. c black",
"K. c black",
"L. c black",
"P. c black",
"I. c black",
"U. c black",
"Y. c black",
"T. c black",
"R. c black",
"E. c black",
"W. c black",
"Q. c black",
"!. c black",
"~. c black",
"^. c black",
"/. c black",
"(. c black",
"). c black",
"_. c black",
"`. c black",
"'. c black",
"]. c black",
"[. c black",
"{. c black",
"}. c black",
"|. c black",
" X c black",
".X c black",
"XX c black",
"oX c black",
"OX c black",
"+X c black",
"@X c black",
"#X c black",
"$X c black",
"%X c black",
"&X c black",
"*X c black",
"=X c black",
"-X c black",
";X c black",
":X c black",
">X c black",
",X c black",
"<X c black",
"1X c black",
"2X c black",
"3X c black",
"4X c black",
"5X c black",
"6X c black",
"7X c black",
"8X c black",
"9X c black",
"0X c black",
"qX c black",
"wX c black",
"eX c black",
"rX c black",
"tX c black",
"yX c black",
"uX c black",
"iX c black",
"pX c black",
"aX c black",
"sX c black",
"dX c black",
"fX c black",
"gX c black",
"hX c black",
"jX c black",
"kX c black",
"lX c black",
"zX c black",
"xX c black",
"cX c black",
"vX c black",
"bX c black",
"nX c black",
"mX c black",
"MX c black",
"NX c black",
"BX c black",
"VX c black",
"CX c black",
"ZX c black",
"AX c black",
"SX c black",
"DX c black",
"FX c black",
"GX c black",
"HX c black",
"JX c black",
"KX c black",
"LX c black",
"PX c black",
"IX c black",
"UX c black",
/* pixels */
"1 1 1 1 1 1 1 1 1 1 1 1 1 1 1 1 ",
"1 1 1 1 1 1     1 1 1 1 1 1 1 1 ",
"1 1 1 1 1   f t   1 1 1 1 1 1 1 ",
"1 1 1 1   v d e 4   1 1 1 1 1 1 ",
"1 1 1   n c s q 3 -   1 1 1 1 1 ",
"1 1   m b x a 0 2 = %   1 1 1 1 ",
"1         z p 9 <         1 1 1 ",
"1 1 1 1   l i 8 ,   1 1 1 1 1 1 ",
"1 1 1 1   k u 7 ,   1 1 1 1 1 1 ",
"1 1 1 1   j y 6 >           1 1 ",
"1 1 1 1   h r 5 : * $ + .   1 1 ",
"1 1 1 1   g e 5 : & # O X   1 1 ",
"1 1 1 1   d w 4 ; & @ o .   1 1 ",
"1 1 1 1                     1 1 ",
"1 1 1 1 1 1 1 1 1 1 1 1 1 1 1 1 "
};
