/* XPM */
static const char* aaaa_xpm[] = {
/* columns rows colors chars-per-pixel */
"64 64 184 2 ",
"   c #020202",
".  c #0C0D0D",
"X  c #030F07",
"o  c #1D1D1D",
"O  c #082813",
"+  c #0E3D1E",
"@  c #103F1F",
"#  c #163822",
"$  c #353535",
"%  c #373B38",
"&  c #0E411F",
"*  c #0F4421",
"=  c #104923",
"-  c #1B4C2C",
";  c #135529",
":  c #16552B",
">  c #285037",
",  c #2B583B",
"<  c #14612E",
"1  c #166C34",
"2  c #156631",
"3  c #177237",
"4  c #19753A",
"5  c #1D7E3E",
"6  c #206B3A",
"7  c #2F6642",
"8  c #316E47",
"9  c #3F7351",
"0  c #2E7948",
"q  c #494949",
"w  c gray35",
"e  c #4B6B56",
"r  c #496E57",
"t  c #506858",
"y  c #487056",
"u  c #5B7B66",
"i  c #5A7764",
"p  c #646464",
"a  c #6D6D6D",
"s  c #676F6A",
"d  c #747574",
"f  c gray48",
"g  c #67706A",
"h  c #1D8C43",
"j  c #1B8440",
"k  c #1F9649",
"l  c #229D4D",
"z  c #368552",
"x  c #218544",
"c  c #22A24F",
"v  c #24AC54",
"b  c #2AA856",
"n  c #28B75B",
"m  c #34A15A",
"M  c #36B462",
"N  c #41875A",
"B  c #569E6F",
"V  c #5F9371",
"C  c #479362",
"Z  c #738B7C",
"A  c #659676",
"S  c #74927F",
"D  c #688873",
"F  c #41B76A",
"G  c #40A965",
"H  c #69A37D",
"J  c #29C25F",
"K  c #2BC661",
"L  c #2BCC63",
"P  c #2DD466",
"I  c #2ED669",
"U  c #2ED869",
"Y  c #33D26A",
"T  c #33D86C",
"R  c #39D971",
"E  c #3CD370",
"W  c #34CF6A",
"Q  c #51CF7D",
"!  c #46DC7A",
"~  c #49DC7C",
"^  c #43D576",
"/  c #52D67F",
"(  c #47CA74",
")  c #768E80",
"_  c #7C9585",
"`  c #7B9A86",
"'  c #789E85",
"]  c #5EBE80",
"[  c #60BC80",
"{  c #74B78C",
"}  c #7CBC93",
"|  c #7EA98D",
" . c #5EC180",
".. c #59DC87",
"X. c #57DC85",
"o. c #6BC48A",
"O. c #6ADA91",
"+. c #79DA9A",
"@. c #77C191",
"#. c #5CE089",
"$. c #60E18D",
"%. c #6BE395",
"&. c #67E191",
"*. c #76E49C",
"=. c #71E297",
"-. c #7FDEA0",
";. c #839C8C",
":. c #81978A",
">. c #889E90",
",. c #83A78F",
"<. c #86A691",
"1. c #8CA495",
"2. c #86AC93",
"3. c #8DA997",
"4. c #8EAB98",
"5. c #8FA798",
"6. c #94AC9C",
"7. c #98AD9F",
"8. c #93A79B",
"9. c #8AB397",
"0. c #8DB49B",
"q. c #85BA97",
"w. c #93B39E",
"e. c #9BAEA2",
"r. c #96B4A1",
"t. c #99B4A3",
"y. c #96BCA3",
"u. c #9ABAA5",
"i. c #A0B2A7",
"p. c #A4B4AA",
"a. c #A8B6AE",
"s. c #A9B8AF",
"d. c #ABBAB1",
"f. c #8DC09E",
"g. c #83C399",
"h. c #8DCAA2",
"j. c #94C4A4",
"k. c #99C0A7",
"l. c #93CAA6",
"z. c #9BC4A9",
"x. c #9CCCAC",
"c. c #96CAA8",
"v. c #8CD4A5",
"b. c #88DAA4",
"n. c #9CD2AE",
"m. c #94DBAC",
"M. c #93D0A8",
"N. c #9FD3B1",
"B. c #9EDBB3",
"V. c #B7C3BC",
"C. c #BAC2BE",
"Z. c #A1DCB5",
"A. c #82E6A4",
"S. c #84E8A7",
"D. c #8DE4AB",
"F. c #8CE9AC",
"G. c #92E8AF",
"H. c #90E1AC",
"J. c #95E5B1",
"K. c #9CE3B4",
"L. c #94EBB2",
"P. c #9AECB6",
"I. c #9EECB9",
"U. c #A1E2B7",
"Y. c #A2E5B9",
"T. c #A2ECBB",
"R. c #BDC6C1",
"E. c #BFC8C3",
"W. c #C2C2C2",
"Q. c #C6CDC9",
"!. c #CCCCCC",
"~. c #C3CAC6",
"^. c #CAD0CD",
"/. c #CED4D1",
"(. c #D3D4D3",
"). c #D4D9D6",
"_. c #DCDCDC",
"`. c #D5DAD8",
"'. c #DEE0DF",
"]. c #DFE3E1",
"[. c #E4E4E4",
"{. c #ECECEC",
"}. c #F2F2F2",
"|. c None",
/* pixels */
"|.|.|.|.|.|.|.|.|.|.|.|.|.|.|.|.|.|.|.|.|.|.|.|.|.|.|.|.|.|.|.|.|.|.|.|.|.|.|.|.|.|.|.|.|.|.|.|.|.|.|.|.|.|.|.|.|.|.|.|.|.|.|.|.",
"|.|.|.|.|.|.|.|.|.|.|.|.|.|.|.|.|.|.|.|.|.|.|.|.|.|.|.|.|.|.|.|.|.|.|.|.|.|.|.|.|.|.|.|.|.|.|.|.|.|.|.|.|.|.|.|.|.|.|.|.|.|.|.|.",
"|.|.|.|.|.|.|.|.|.|.|.|.|.|.|.|.|.|.|.|.|.|.|.|.|.|.|.|.|.|.|.|.|.|.|.|.|.|.|.|.|.|.|.|.|.|.|.|.|.|.|.|.|.|.|.|.|.|.|.|.|.|.|.|.",
"|.|.|.|.|.|.|.|.|.|.|.|.|.|.|.|.|.|.|.|.|.|.|.|.|.|.|.|.|.|.|.|.|.|.|.|.|.|.|.|.|.|.|.|.|.|.|.|.|.|.|.|.|.|.|.|.|.|.|.|.|.|.|.|.",
"|.|.|.|.|.|.|.|.|.|.|.|.|.|.|.|.|.|.|.|.|.|.|.|.|.|.|.|.|.|.|.|.|.|.|.|.|.|.|.|.|.|.|.|.|.|.|.|.|.|.|.|.|.|.|.|.|.|.|.|.|.|.|.|.",
"|.|.|.|.|.|.|.|.|.|.|.|.|.|.|.|.|.|.|.|.|.|.|.|.|.|.|.|.|.|.|.|.|.|.|.|.|.|.|.|.|.|.|.|.|.|.|.|.|.|.|.|.|.|.|.|.|.|.|.|.|.|.|.|.",
"|.|.|.|.|.|.|.|.|.|.|.|.|.|.|.|.|.|.|.|.|.|.|.|.|.|.|.|.|.|.|.|.|.|.|.|.|.|.|.|.|.|.|.|.|.|.|.|.|.|.|.|.|.|.|.|.|.|.|.|.|.|.|.|.",
"|.|.|.|.|.|.|.|.|.|.|.|.|.|.|.|.|.|.|.|.|.|.|.|.|.|.|.|.|.|.|.|.|.|.|.|.|.|.|.|.|.|.|.|.|.|.|.|.|.|.|.|.|.|.|.|.|.|.|.|.|.|.|.|.",
"|.|.|.|.|.|.|.|.|.|.|.|.|.|.|.|.|.|.|.|.|.|.|.|.|.|.|.|.|.|.|.|.|.|.|.|.|.|.|.|.|.|.|.|.|.|.|.|.|.|.|.|.|.|.|.|.|.|.|.|.|.|.|.|.",
"|.|.|.|.|.|.|.|.|.|.|.|.|.|.|.|.|.|.|.|.|.|.|.(.(.(.(.`._.)./.!./.!.)._.).(.!.!.!.|.|.|.|.|.|.|.|.|.|.|.|.|.|.|.|.|.|.|.|.|.|.|.",
"|.|.|.|.|.|.|.|.|.|.|.|.|.|.|.|.|.|.|.!.!.(._.'.[.`.E.s.e.7.7.7.7.e.7.7.a.W.).].'.(.(.Q.!.|.|.|.|.|.|.|.|.|.|.|.|.|.|.|.|.|.|.|.",
"|.|.|.|.|.|.|.|.|.|.|.|.|.|.|.|.W.Q.(._.[.[.[.^.a.7.e.t.t.t.u.p.u.t.t.t.t.7.7.p.Q.[.[.'.(.!.~.W.|.|.|.|.|.|.|.|.|.|.|.|.|.|.|.|.",
"|.|.|.|.|.|.|.|.|.|.|.|.|.|.W.~.(._.[.{.{.^.i.7.7.u.u.z.N.N.N.N.Z.x.N.x.s.p.t.t.7.i.^.{.[.[.`./.!.W.|.|.|.|.|.|.|.|.|.|.|.|.|.|.",
"|.|.|.|.|.|.|.|.|.|.|.|.W.W.!._.[.{.{.[.s.7.t.t.z.x.Z.Z.T.T.U.Y.U.U.Y.Z.Z.Z.x.u.t.e.7.s.[.{.{.[._.!.W.W.|.|.|.|.|.|.|.|.|.|.|.|.",
"|.|.|.|.|.|.|.|.|.|.W.W.W.(.[.{.{.{.`.t.7.u.k.N.Z.U.U.T.T.T.T.T.T.T.T.T.T.Y.U.Z.N.y.t.7.e.`.{.{.{.'.(.W.d.W.|.|.|.|.|.|.|.|.|.|.",
"|.|.|.|.|.|.|.|.|.W.W.!.(.[.{.{.{.(.7.6.y.z.Z.U.Y.T.T.T.T.T.T.T.T.T.T.T.T.T.T.T.U.Z.z.y.6.7.(.{.{.{.[.(.!.W.W.|.|.|.|.|.|.|.|.|.",
"|.|.|.|.|.|.|.|.W.W.W.(.[.{.{.{.(.e.6.y.n.K.Y.T.T.T.T.T.T.T.T.T.T.T.T.T.T.T.T.T.T.Y.Z.x.y.w.8.).{.{.{.[.(.!.W.W.|.|.|.|.|.|.|.|.",
"|.|.|.|.|.|.|.W.W.!.(.'.{.{.}.'.6.6.y.n.U.Y.T.T.T.T.T.T.T.T.T.T.T.T.T.I.T.I.T.T.T.T.Y.K.x.y.6.6.'.}.}.{.[.(.!.W.W.|.|.|.|.|.|.|.",
"|.|.|.|.|.|.W.W.!.!.`.{.{.}.{.i.8.y.M.K.I.I.I.I.I.I.I.I.I.I.I.I.T.I.I.I.T.T.I.I.I.I.I.K.K.x.w.6.i.}.}.{.{.'./.!.W.W.|.|.|.|.|.|.",
"|.|.|.|.|.W.W.Q.!.(.[.{.}.}.d.7.w.c.B.I.I.I.I.I.I.I.I.I.I.I.I.I.I.I.I.I.I.I.I.I.I.I.I.I.I.m.l.w.1.d.}.}.{.{.(.!.Q.W.W.|.|.|.|.|.",
"|.|.|.|.W.W.!.!.(.`.[.{.}.].1.3.j.m.K.P.P.I.P.I.I.P.P.P.P.I.I.I.I.P.P.I.I.P.P.P.P.I.I.P.I.K.m.y.8.1.[.}.}.{._.(.!.!.W.W.|.|.|.|.",
"|.|.|.W.d.!.!.(.)._.{.}.}.a.1.0.l.J.P.L.L.P.P.L.P.P.P.P.P.L.P.P.P.P.P.P.P.L.P.P.P.L.P.P.P.L.m.M.9.1.s.}.}.}.[.`.(.!.W.W.W.|.|.|.",
"|.|.|.W.W.!.(.(._.[.{.}.[.<.2.h.m.L.L.L.L.L.L.L.L.L.L.P.L.H.0.0.9.f.F.L.P.P.L.L.L.L.L.L.L.L.J.m.0.2.<.[.}.}.[._.(.(.!.W.W.|.|.|.",
"|.|.W.W.!.!.(._._.[.{.}.V.;.2.h.D.G.L.L.L.L.L.L.G.L.G.v.:.f f d f f f | b.L.L.F.L.L.L.G.L.L.G.H.h.2.;.V.}.}.[.].`.(.!.~.W.W.|.|.",
"|.|.W.W.!.!._._.[.[.{.}.>.' q.v.D.D.F.F.F.F.F.F.G.G.g.d d d d d d d d d d g.F.F.F.F.F.F.F.F.F.S.v.2.` 1.}.}.{.[.'.(.(.!.W.W.|.|.",
"|.W.W.~.!.(._._.[.{.{._.u ' } b.D.S.S.F.F.S.F.S.F.@.a a a a a a a a a a a a @.F.S.F.F.F.F.F.F.S.b.} ' S [.}.[.[.'._.(.(.!.W.W.|.",
"|.W.W.!.!._._.[.[.{.{.i., A @.+.A.S.A.A.S.S.A.S.A.g p p p p p p p p p p p p a -.S.S.-.S.*.S.S.S.+.} S V C.}.{.[.[._.(.!.Q.W.W.|.",
"|.W.W.!.(._._.[.{.{.}.) = 0 [ +.*.*.*.*.*.*.*.*.H w w w w w w w w w w w w w w H *.*.*.*.*.*.*.*.+.o.A y ;.}.{.{.[.'._.!.!.W.W.|.",
"|.W.!.!.(._.'.[.{.{.{.u = 3 M X.&.%.&.%.%.%.%.%.t q q q q q q q q q q q q q q e %.%.%.=.%.=.%.%.O.H m - i }.{.[.[.'._.(.!.W.W.|.",
"W.d.W.!.(._._.{.{.{.}.t = 3 v Y ! X.#.#.#.#...X.% $ $ $ $ $ $ $ $ $ $ $ % $ $ % ......#.#.#...../ M 5 = t }.}.{.{._._.(.!.!.W.W.",
"W.W.!.(.(._.[.[.{.}.}.e = 4 n L I T ^ ! ! ~ ~ ^ o o o o o o o o o o o o o o o o ^ ! ~ ~ ~ ! ! R Y b 3 = t }.}.{.[.[._.(.!.!.W.d.",
"W.W.W.!.(._.'.[.{.{.}.t = 4 v L P I U T U T T T .   X .   .   . .   .   . X   . T T T T T T T I L c 3 = t }.{.{.[.'._.(.!.!.W.W.",
"W.W.W.!.(._.'.[.{.{.}.u = 3 v L U U U U U U U U O                             O U U U U U U I P L c 1 = i }.}.{.[._._.(.!.!.W.W.",
"|.W.W.!.!._.'.[.{.{.}.Z * 2 c L U U U U U U U U 1                             1 U U U U U U I P K l 2 * Z }.{.{.[.'.(.(.!.W.W.|.",
"|.W.W.!.(._.'.[.[.{.}.e.& < k J P U U U U U U U J X                         X J U U U U U I I P J k ; & e.}.{.[.[._.(.(.Q.W.W.|.",
"|.W.W.!.!.(.`.[.[.{.{.^.& ; h n P P U U U U U U U h                         h U U U U U U I I P n j ; & /.{.{.[.[.`.(.(.!.W.W.|.",
"|.W.W.W.!.(.(._.[.{.{.{.> = 4 v L P U T U U U U U U 5         .           5 T T U T U T I I T L v 3 = > {.{.{.[._._.(.!.W.d.W.|.",
"|.|.W.W.!.(.(._.].[.{.{.Z * 2 l K I T T R T R R R R R b # . . . . . . # b R R T R R T T T T P n k < + Z {.{.[.'.'.(.!.!.W.W.|.|.",
"|.|.W.W.W.!.(.`._.[.[.{.~.@ ; j M E ! ! X.! ! X.~ X.~ ~ ~ F z 0 8 z F ~ ~ ~ ~ ~ ~ ~ ~ ~ ^ R W n 5 ; + ~.{.[.[._._.!.!.W.W.W.|.|.",
"|.|.|.W.W.!.!.(._._.[.[.{.t ; 0 M Q ....#.#.#.#.#.$.$.$.$.$.$.$.$.&.$.$.$.$.$.$.$.$.#.#...X.( m 1 = t {.[.[._._.(.!.!.W.W.|.|.|.",
"|.|.|.|.W.!.!.(.(._.'.'.[.W.> y B o.+.=.=.*.*.*.*.*.*.*.*.*.*.*.*.*.*.*.*.*.*.*.*.*.*.*.=.O.] C 7 - W.[.'.'._.(.(.!.W.d.|.|.|.|.",
"|.|.|.|.d.W.W.!.(.(._._.[.{.:.u A } +.S.S.S.S.A.S.S.S.S.S.S.S.S.S.S.S.S.S.S.S.S.-.S.S.-.b.+.{ V t ) [.[._._.(.(.!.W.W.W.|.|.|.|.",
"|.|.|.|.|.W.W.W.!.(.(._.'.[.[._ ` | g.b.D.F.F.F.F.G.G.F.F.F.F.F.F.F.F.F.G.G.F.F.F.F.F.F.b.g.| S Z [.[.'._.(.!.!.!.W.W.|.|.|.|.|.",
"|.|.|.|.|.|.W.W.W.!.!.(._.[.{.(.;.1.9.l.m.J.J.L.L.L.L.G.L.L.L.L.L.L.L.P.L.L.L.J.L.L.L.H.h.9.,.;.).[.[._.(.!.!.W.W.W.|.|.|.|.|.|.",
"|.|.|.|.|.|.|.W.W.W.!.(.)._.[.{.^.1.3.0.l.m.K.P.P.L.I.P.P.P.P.P.I.P.P.P.P.P.P.P.P.K.m.l.0.3.1.Q.{.[._.(.(.!.W.W.W.|.|.|.|.|.|.|.",
"|.|.|.|.|.|.|.|.W.W.W.!.(._.[.{.{.Q.3.6.w.l.n.K.K.P.Y.I.I.I.I.I.I.I.I.I.I.I.P.K.B.n.j.0.5.5.Q.{.{.[._.(.!.W.W.W.|.|.|.|.|.|.|.|.",
"|.|.|.|.|.|.|.|.|.|.W.W.!.!._.[.{.{./.6.6.w.k.M.B.K.Y.K.I.T.T.Y.I.I.T.I.K.Y.B.B.M.y.w.6.6.(.{.{.[._.(.!.W.W.|.|.|.|.|.|.|.|.|.|.",
"|.|.|.|.|.|.|.|.|.|.|.W.d.!.!.)._.[.[.'.i.8.6.r.k.x.n.B.U.K.U.U.T.U.K.Z.B.n.x.k.r.6.8.p._.{.[.[._.(.!.d.W.|.|.|.|.|.|.|.|.|.|.|.",
"|.|.|.|.|.|.|.|.|.|.|.|.|.W.~.!.!._.'.[.[.~.8.5.6.w.y.k.z.x.n.N.N.x.x.z.k.y.7.7.5.7.~.[.[.[.'.(.!.W.W.|.|.|.|.|.|.|.|.|.|.|.|.|.",
"|.|.|.|.|.|.|.|.|.|.|.|.|.|.|.W.!.!.(.(.'.'._.C.5.>.1.4.8.w.w.w.w.w.w.w.4.1.1.8.C.'.[.[._.(.!.!.!.|.|.|.|.|.|.|.|.|.|.|.|.|.|.|.",
"|.|.|.|.|.|.|.|.|.|.|.|.|.|.|.|.|.|.!.!.!.(.(._._.~.p.>._ S :.;.:._ :._ 1.a.Q._._.`.(.!.!.(.|.|.|.|.|.|.|.|.|.|.|.|.|.|.|.|.|.|.",
"|.|.|.|.|.|.|.|.|.|.|.|.|.|.|.|.|.|.|.|.|.(.!.!.!.(.(.(.(.Q.W.d.C.C.!.(.(.(.(.(.!.!._.|.|.|.|.|.|.|.|.|.|.|.|.|.|.|.|.|.|.|.|.|.",
"|.|.|.|.|.|.|.|.|.|.|.|.|.|.|.|.|.|.|.|.|.|.|.|.|.|._.(.(.!.!.(.!.!./.(.`.'.|.|.|.|.|.|.|.|.|.|.|.|.|.|.|.|.|.|.|.|.|.|.|.|.|.|.",
"|.|.|.|.|.|.|.|.|.|.|.|.|.|.|.|.|.|.|.|.|.|.|.|.|.|.|.|.|.|.|.|.|.|.|.|.|.|.|.|.|.|.|.|.|.|.|.|.|.|.|.|.|.|.|.|.|.|.|.|.|.|.|.|.",
"|.|.|.|.|.|.|.|.|.|.|.|.|.|.|.|.|.|.|.|.|.|.|.|.|.|.|.|.|.|.|.|.|.|.|.|.|.|.|.|.|.|.|.|.|.|.|.|.|.|.|.|.|.|.|.|.|.|.|.|.|.|.|.|.",
"|.|.|.|.|.|.|.|.|.|.|.|.|.|.|.|.|.|.|.|.|.|.|.|.|.|.|.|.|.|.|.|.|.|.|.|.|.|.|.|.|.|.|.|.|.|.|.|.|.|.|.|.|.|.|.|.|.|.|.|.|.|.|.|.",
"|.|.|.|.|.|.|.|.|.|.|.|.|.|.|.|.|.|.|.|.|.|.|.|.|.|.|.|.|.|.|.|.|.|.|.|.|.|.|.|.|.|.|.|.|.|.|.|.|.|.|.|.|.|.|.|.|.|.|.|.|.|.|.|.",
"|.|.|.|.|.|.|.|.|.|.|.|.|.|.|.|.|.|.|.|.|.|.|.|.|.|.|.|.|.|.|.|.|.|.|.|.|.|.|.|.|.|.|.|.|.|.|.|.|.|.|.|.|.|.|.|.|.|.|.|.|.|.|.|.",
"|.|.|.|.|.|.|.|.|.|.|.|.|.|.|.|.|.|.|.|.|.|.|.|.|.|.|.|.|.|.|.|.|.|.|.|.|.|.|.|.|.|.|.|.|.|.|.|.|.|.|.|.|.|.|.|.|.|.|.|.|.|.|.|.",
"|.|.|.|.|.|.|.|.|.|.|.|.|.|.|.|.|.|.|.|.|.|.|.|.|.|.|.|.|.|.|.|.|.|.|.|.|.|.|.|.|.|.|.|.|.|.|.|.|.|.|.|.|.|.|.|.|.|.|.|.|.|.|.|.",
"|.|.|.|.|.|.|.|.|.|.|.|.|.|.|.|.|.|.|.|.|.|.|.|.|.|.|.|.|.|.|.|.|.|.|.|.|.|.|.|.|.|.|.|.|.|.|.|.|.|.|.|.|.|.|.|.|.|.|.|.|.|.|.|.",
"|.|.|.|.|.|.|.|.|.|.|.|.|.|.|.|.|.|.|.|.|.|.|.|.|.|.|.|.|.|.|.|.|.|.|.|.|.|.|.|.|.|.|.|.|.|.|.|.|.|.|.|.|.|.|.|.|.|.|.|.|.|.|.|.",
"|.|.|.|.|.|.|.|.|.|.|.|.|.|.|.|.|.|.|.|.|.|.|.|.|.|.|.|.|.|.|.|.|.|.|.|.|.|.|.|.|.|.|.|.|.|.|.|.|.|.|.|.|.|.|.|.|.|.|.|.|.|.|.|.",
"|.|.|.|.|.|.|.|.|.|.|.|.|.|.|.|.|.|.|.|.|.|.|.|.|.|.|.|.|.|.|.|.|.|.|.|.|.|.|.|.|.|.|.|.|.|.|.|.|.|.|.|.|.|.|.|.|.|.|.|.|.|.|.|."
};
