/* XPM */
static char *new[] = {
/* columns rows colors chars-per-pixel */
"16 15 16 1 ",
"  c #ACE95B",
". c #4581AA",
"X c #5088AD",
"o c #6591AE",
"O c #719CBB",
"+ c #8EA9BC",
"@ c #93C2E6",
"# c #A5CCEA",
"$ c #B6D5EE",
"% c #C0C0C0",
"& c #C3DDF1",
"* c #D1E5F5",
"= c #DEEDF8",
"- c #ECF5FB",
"; c #F5FAFD",
": c #FEFEFF",
/* pixels */
"%%%+XOooX..+%%%%",
"%%%+&&$#@@oOO%%%",
"%%....&$#@o:@O%%",
"%%.  .&&$#o::@O%",
"...  ...&$ooOoX%",
".      .*&$#@@X%",
".      .=*&$#@X%",
"...  ...==*&$#o%",
"%%.  .;--==*&$o%",
"%%....;;--==*&O%",
"%%%+:::;;--==*O%",
"%%%+::::;;--==O%",
"%%%+:::::;;--=+%",
"%%%+::::::;;--+%",
"%%%++++++++++++%"
};
