/* XPM */
static char *new_dir[] = {
/* columns rows colors chars-per-pixel */
"16 15 16 1 ",
"  c #FCFE04",
". c #F2F425",
"X c #E9EB42",
"o c #547A94",
"O c #7B95AF",
"+ c #899CAA",
"@ c #90A4BA",
"# c #A0B0C4",
"$ c #ACBACC",
"% c #B4BED4",
"& c #BCCADC",
"* c #C0C0C0",
"= c #CCD2DC",
"- c #D4DCE4",
"; c #E3E6EE",
": c #EDF1F2",
/* pixels */
"*********.**X**.",
"*+++++****X*X*X*",
"*+----+****...**",
"*+oooo++@XXX  XX",
"*+%&=--;;**...**",
"*+%&=--;;:X*.*X*",
"*+$%&=--;.*:.**.",
"*+#$%&=--;;::+**",
"*+##$%&=--;;:+**",
"*+@##$%&=--;:+**",
"*+O@##$%&=--;+**",
"*+OO@##$%&=--+**",
"*+OOO@##$%&=-+**",
"*+++++++++++++**",
"****************"
};
