/* XPM */
static char *newrated[] = {
/* columns rows colors chars-per-pixel */
"16 15 16 1 ",
"  c #FFEF00",
". c #FFFC00",
"X c #4581AA",
"o c #5088AD",
"O c #6591AE",
"+ c #719CBB",
"@ c #8EA9BC",
"# c #93C2E6",
"$ c #A5CCEA",
"% c #B6D5EE",
"& c #C0C0C0",
"* c #C3DDF1",
"= c #D1E5F5",
"- c #DEEDF8",
"; c #F0F7FC",
": c #FEFEFF",
/* pixels */
"&&&@o+OOoXX@&&&&",
"&&&@**%$##O++&&&",
"&&XXXX*%$#O:#+&&",
"&&X .X**%$O::#+&",
"XXX..XXX*%OO+Oo&",
"X......X=*%$##o&",
"X .....X-=*%$#o&",
"XXX..XXX--=*%$O&",
"&&X .X;;;--=*%O&",
"&&XXXX;;;;--=*+&",
"&&&@:::;;;;--=+&",
"&&&@::::;;;;--+&",
"&&&@:::::;;;;-@&",
"&&&@::::::;;;;@&",
"&&&@@@@@@@@@@@@&"
};
