/* XPM */
static char *quit[] = {
/* columns rows colors chars-per-pixel */
"16 15 16 1 ",
"  c black",
". c #982106",
"X c #9AEA53",
"o c #A4E06F",
"O c #305F81",
"+ c #4C7192",
"@ c #8196A5",
"# c #819CB0",
"$ c #8FA8BA",
"% c #9BB1C2",
"& c #A7BBCA",
"* c #B2C4D0",
"= c #C0C0C0",
"- c #BDCCD7",
"; c #CAD6DF",
": c #DCE4EA",
/* pixels */
"=@OOOOOOOOOO@===",
"=@:+OO      @===",
"=@::;#O+    @===",
"=@:;;;-*O   @===",
"=@;;--**O   @===",
"=@;--**&O OO@===",
"=@--**&&O OX@===",
"=@-**..%OOOXo@==",
"=@*&&..$OXXXXo@=",
"=@&&%%$$OXXXXXo$",
"=@&%%$$#OXXXXo@=",
"=@%%$$##@@@Xo@==",
"=@@#$##@@=@o@===",
"===#@@#@@=@@====",
"======@O@======="
};
