/* XPM */
static char *resign[] = {
/* columns rows colors chars-per-pixel */
"16 15 2 1 ",
"  c #FF4040",
". c #C0C0C0",
/* pixels */
"................",
".........     ..",
".........     ..",
".........     ..",
".........     ..",
".........     ..",
".........     ..",
".........     ..",
".........     ..",
".........     ..",
".........     ..",
".........     ..",
".........  .  ..",
"......... ... ..",
"................"
};
