/* XPM */
static char *sethome[] = {
/* columns rows colors chars-per-pixel */
"16 16 256 2 ",
"   c #545652",
".  c #7A4B49",
"X  c #646662",
"o  c #747474",
"O  c #747575",
"+  c #717479",
"@  c #767779",
"#  c #74777A",
"$  c #74777B",
"%  c #75787B",
"&  c #75787C",
"*  c #3364A4",
"=  c #4975AE",
"-  c #6D7581",
";  c #707781",
":  c #7D807A",
">  c #7E817B",
",  c #5E86B7",
"<  c #7B868A",
"1  c #7698C2",
"2  c #7899C3",
"3  c #A40000",
"4  c #885957",
"5  c #995C5A",
"6  c #9D7472",
"7  c #EF2828",
"8  c #8A8864",
"9  c #80827C",
"0  c #88897D",
"q  c #848582",
"w  c #848681",
"e  c #868883",
"r  c #878984",
"t  c #888A85",
"y  c #8F908D",
"u  c #859298",
"i  c #979994",
"p  c #989996",
"a  c #999A96",
"s  c #9B9B9A",
"d  c #9FA09E",
"f  c #A38D8B",
"g  c #A79F9D",
"h  c #BB8A98",
"j  c #BF9AA9",
"k  c #A2A3A1",
"l  c #A2A2A2",
"z  c gray64",
"x  c #A4A4A4",
"c  c #B3B3B1",
"v  c #B1B3B6",
"b  c #B8B9B8",
"n  c #BABAB9",
"m  c #BABBBC",
"M  c #BFBFBE",
"N  c #B8BCC1",
"B  c #C08A8A",
"V  c #DD8792",
"C  c #C4A1A1",
"Z  c #C9B5B5",
"A  c #D6AEBE",
"S  c #C0C0C0",
"D  c #C2C2C1",
"F  c #D7D7D7",
"G  c #DCD0D0",
"H  c #D8D8D8",
"J  c #DADADA",
"K  c #DDDDDD",
"L  c #DEDEDD",
"P  c #E2E3E2",
"I  c gray89",
"U  c #E5E4E4",
"Y  c #E6E6E6",
"T  c #E7E7E7",
"R  c #E9E9E9",
"E  c #EAEAEA",
"W  c #EEEEEE",
"Q  c #EFEFEF",
"!  c gray94",
"~  c #F1F1F1",
"^  c gray95",
"/  c #F3F3F3",
"(  c #F4F4F4",
")  c gray96",
"_  c #FBFBFB",
"`  c black",
"'  c black",
"]  c black",
"[  c black",
"{  c black",
"}  c black",
"|  c black",
" . c black",
".. c black",
"X. c black",
"o. c black",
"O. c black",
"+. c black",
"@. c black",
"#. c black",
"$. c black",
"%. c black",
"&. c black",
"*. c black",
"=. c black",
"-. c black",
";. c black",
":. c black",
">. c black",
",. c black",
"<. c black",
"1. c black",
"2. c black",
"3. c black",
"4. c black",
"5. c black",
"6. c black",
"7. c black",
"8. c black",
"9. c black",
"0. c black",
"q. c black",
"w. c black",
"e. c black",
"r. c black",
"t. c black",
"y. c black",
"u. c black",
"i. c black",
"p. c black",
"a. c black",
"s. c black",
"d. c black",
"f. c black",
"g. c black",
"h. c black",
"j. c black",
"k. c black",
"l. c black",
"z. c black",
"x. c black",
"c. c black",
"v. c black",
"b. c black",
"n. c black",
"m. c black",
"M. c black",
"N. c black",
"B. c black",
"V. c black",
"C. c black",
"Z. c black",
"A. c black",
"S. c black",
"D. c black",
"F. c black",
"G. c black",
"H. c black",
"J. c black",
"K. c black",
"L. c black",
"P. c black",
"I. c black",
"U. c black",
"Y. c black",
"T. c black",
"R. c black",
"E. c black",
"W. c black",
"Q. c black",
"!. c black",
"~. c black",
"^. c black",
"/. c black",
"(. c black",
"). c black",
"_. c black",
"`. c black",
"'. c black",
"]. c black",
"[. c black",
"{. c black",
"}. c black",
"|. c black",
" X c black",
".X c black",
"XX c black",
"oX c black",
"OX c black",
"+X c black",
"@X c black",
"#X c black",
"$X c black",
"%X c black",
"&X c black",
"*X c black",
"=X c black",
"-X c black",
";X c black",
":X c black",
">X c black",
",X c black",
"<X c black",
"1X c black",
"2X c black",
"3X c black",
"4X c black",
"5X c black",
"6X c black",
"7X c black",
"8X c black",
"9X c black",
"0X c black",
"qX c black",
"wX c black",
"eX c black",
"rX c black",
"tX c black",
"yX c black",
"uX c black",
"iX c black",
"pX c black",
"aX c black",
"sX c black",
"dX c black",
"fX c black",
"gX c black",
"hX c black",
"jX c black",
"kX c black",
"lX c black",
"zX c black",
"xX c black",
"cX c black",
"vX c black",
"bX c black",
"nX c black",
"mX c black",
"MX c black",
"NX c black",
"BX c black",
"VX c black",
"CX c black",
"ZX c black",
"AX c black",
"SX c black",
"DX c black",
"FX c black",
"GX c black",
"HX c black",
"JX c black",
"KX c black",
"LX c black",
"PX c black",
"IX c black",
"UX c black",
/* pixels */
"S S S S S S A 3 3 V S S S S S S ",
"S S S S S A 3 7 7 3 A S S S S S ",
"S S S S A 3 7 . 4 7 3 A S S S S ",
"S S S A 3 7 5 q s B 7 3 A S S S ",
"S S A 3 7 6 y b D n C 7 3 A S S ",
"S A 3 7 f d M L L K F Z 7 3 A S ",
"A 3 7 g l J E E E R R T G 7 3 A ",
"3 7 c k H Y T T T Y U U I U 7 3 ",
"h 7 P         T @ & o & O ) 7 j ",
"S   ~   : > 9 T % 2 o 1 $ (   S ",
"S   !   w w w T # , o = + /   S ",
"S   Q   e e 8 T ; * o * - /   S ",
"S   Q   r r 0 T v N m N x ^   S ",
"S   W   t t t T l z z z z ^   S ",
"S   ) X i p a ^ ) ) ) ) ) _   S ",
"S <                         u S "
};
