/* XPM */
static char *undo[] = {
/* columns rows colors chars-per-pixel */
"16 15 16 1 ",
"  c #236289",
". c #326A8F",
"X c #427193",
"o c #577A99",
"O c #65839D",
"+ c #718BA7",
"@ c #7A97A8",
"# c #7D98AB",
"$ c #7F98B3",
"% c #859DAE",
"& c #8EA5B7",
"* c #9BB0C1",
"= c #A9B7C6",
"- c #B6C4D1",
"; c #C0C0C0",
": c #DAE0E7",
/* pixels */
";;;;;;;&   X-;;;",
"&;;;;%@@....@&;;",
"@&;;@#XXX.XXX@*;",
".#%@#o%@&=&@oo#;",
".OooO%@;;;;&oO@;",
".+++O@;;;;;*O+#;",
"X$$$+#;;;;;#$$#;",
"X&&&&&@;;;;%&&&;",
"X**$&%@%;;#=*#;;",
"@#%*-;;;;#==&&;;",
";;;;;;;;#=-=#;;;",
";;;;;;;#-:-#;;;;",
";;;;;;;&:-#;;;;;",
";;;;;;;%%%;;;;;;",
";;;;;;;;;;;;;;;;"
};
